<svg xmlns="http://www.w3.org/2000/svg" xmlns:xlink="http://www.w3.org/1999/xlink" version="1.1" x="0px" y="0px" viewBox="0 0 100 125" enable-background="new 0 0 100 100" xml:space="preserve"><g><path fill="#000000" d="M69.135,63.019c10.241-4.875,14.607-17.173,9.733-27.416c-2.358-4.954-6.512-8.696-11.696-10.536   c-5.184-1.839-10.768-1.553-15.721,0.805c-3.607,1.717-6.579,4.41-8.657,7.798c-0.934-0.13-1.879-0.203-2.835-0.203   c-7.871,0-15.157,4.57-18.563,11.644c-2.381,4.944-2.692,10.526-0.875,15.717c1.816,5.192,5.539,9.362,10.482,11.743   c2.806,1.351,5.799,2.036,8.896,2.036c7.165,0,13.836-3.796,17.547-9.812c0.962,0.136,1.926,0.224,2.886,0.224   C63.362,65.018,66.353,64.344,69.135,63.019z M76.882,36.549c2.354,4.948,2.277,10.425,0.278,15.108   c-5.624-1.161-10.433-4.912-12.899-10.096c-2.268-4.762-2.364-10.241-0.302-15.09c0.833,0.172,1.661,0.381,2.478,0.67   C71.066,28.784,74.776,32.125,76.882,36.549z M35.58,51.953c-2.41,5.009-6.877,8.589-12.275,9.883   c-0.263-0.562-0.5-1.141-0.708-1.734c-0.084-0.239-0.141-0.483-0.215-0.725c4.368-1.507,7.943-4.668,9.978-8.894   c2.05-4.26,2.275-9.066,0.689-13.447c0.846-0.344,1.718-0.627,2.612-0.844C38.014,41.217,37.992,46.943,35.58,51.953z    M32.053,37.474c0.327-0.156,0.659-0.301,0.995-0.438C32.712,37.173,32.38,37.319,32.053,37.474z M23.378,46.065   c1.829-3.799,4.917-6.78,8.614-8.561c-0.318,0.152-0.633,0.312-0.94,0.483c1.304,3.772,1.084,7.886-0.675,11.542   c-1.745,3.625-4.793,6.346-8.518,7.689c0.13,0.724,0.305,1.442,0.521,2.154C21.029,54.945,21.361,50.25,23.378,46.065z    M31.958,70.588c-3.15-1.517-5.731-3.859-7.55-6.756c5.779-1.562,10.543-5.5,13.154-10.925c2.615-5.432,2.721-11.616,0.333-17.112   c0.682-0.078,1.369-0.129,2.063-0.129c2.764,0,5.436,0.611,7.94,1.818c2.999,1.444,5.413,3.609,7.168,6.179   c-5.425,1.699-9.907,5.554-12.386,10.699c-2.707,5.62-2.69,12.215-0.006,17.825c-0.912,0.141-1.839,0.219-2.776,0.219   C37.135,72.407,34.463,71.795,31.958,70.588z M47.724,70.639c-0.912,0.43-1.857,0.789-2.833,1.066   c-2.626-5.111-2.719-11.212-0.227-16.388c2.289-4.752,6.496-8.263,11.564-9.695c0.487,0.947,0.893,1.931,1.21,2.945   c-4.263,1.288-7.796,4.277-9.733,8.301C45.614,61.212,45.648,66.302,47.724,70.639z M49.658,69.592   c-1.742-3.717-1.757-8.059,0.029-11.768c1.653-3.436,4.655-5.992,8.281-7.119c0.689,3.707,0.271,7.652-1.487,11.303   C54.955,65.176,52.557,67.782,49.658,69.592z M58.562,62.731c4.747-10.176,0.436-22.344-9.707-27.229   c-1.218-0.586-2.473-1.039-3.755-1.373c1.827-2.702,4.323-4.855,7.297-6.271c2.944-1.401,6.136-1.963,9.308-1.711   c-2.078,5.293-1.885,11.204,0.57,16.359c2.68,5.632,7.827,9.754,13.884,11.182c-1.796,3.092-4.504,5.695-7.969,7.345   C65.164,62.474,61.865,63.051,58.562,62.731z"/><path fill="#000000" d="M67.98,65.53c-4.024,0-7.298,3.273-7.298,7.297c0,4.024,3.273,7.298,7.298,7.298s7.298-3.273,7.298-7.298   C75.278,68.803,72.005,65.53,67.98,65.53z M67.98,77.925c-2.812,0-5.099-2.287-5.099-5.099c0-2.811,2.287-5.098,5.099-5.098   s5.099,2.287,5.099,5.098C73.079,75.638,70.792,77.925,67.98,77.925z"/></g><text x="0" y="115" fill="#000000" font-size="5px" font-weight="bold" font-family="'Helvetica Neue', Helvetica, Arial-Unicode, Arial, Sans-serif">Created by Jakub Čaja</text><text x="0" y="120" fill="#000000" font-size="5px" font-weight="bold" font-family="'Helvetica Neue', Helvetica, Arial-Unicode, Arial, Sans-serif">from the Noun Project</text></svg>