<svg xmlns="http://www.w3.org/2000/svg" xmlns:xlink="http://www.w3.org/1999/xlink" version="1.1" x="0px" y="0px" viewBox="0 0 100 125" enable-background="new 0 0 100 100" xml:space="preserve"><g><path d="M50,16.4c-6.4,0-12.3,1.8-17.4,4.9c-0.9,3-1.5,6.3-1.5,9.6c0,18,14.7,32.7,32.7,32.7c7,0,13.5-2.2,18.8-6   c0.6-2.5,0.9-5,0.9-7.7C83.6,31.5,68.5,16.4,50,16.4z"/><path d="M63.8,65.4c-19,0-34.4-15.4-34.4-34.4c0-2.8,0.4-5.6,1-8.2c-8.5,6.1-14,16-14,27.2c0,12.7,7.1,23.8,17.5,29.5   c4.8,2.6,10.2,4.1,16.1,4.1c5.7,0,11.1-1.4,15.8-3.9c7.7-4.1,13.5-11,16.2-19.4C76.7,63.5,70.5,65.4,63.8,65.4z"/></g><text x="0" y="115" fill="#000000" font-size="5px" font-weight="bold" font-family="'Helvetica Neue', Helvetica, Arial-Unicode, Arial, Sans-serif">Created by Aurélien Lemesre</text><text x="0" y="120" fill="#000000" font-size="5px" font-weight="bold" font-family="'Helvetica Neue', Helvetica, Arial-Unicode, Arial, Sans-serif">from the Noun Project</text></svg>